PathFileType	4	(X/Y/Z)	G:\Shared drives\HIT\Data\HapticPilot\Subject1\Edited\RHJC1.trc
DataRate	CameraRate	NumFrames	NumMarkers	Units	OrigDataRate	OrigDataStartFrame	OrigNumFrames
50.00	50.00	       6	38	mm	50.00	429	       571
Frame#	Time	r_knee			r_shank(antsup)			r_ankle			r_calc			r_5meta			r_toe			L_knee			L_shank(ant_sup)			L_ankle			L_calc			L_5meta			L_toe			r_mknee			r_mankle			L_mknee			L_mankle			r_sh2			r_sh3			r_sh4			L_sh2			L_sh3			r_thigh1			r_thigh2			r_thigh3			r_thigh4			r_thigh5			L_thigh1			L_thigh2			L_thigh3			L_thigh4			r.ASIS			r.PSIS			L.ASIS			L.PSIS			C7			R_Shoulder			L_Shoulder			Sternum			
		X1	Y1	Z1	X2	Y2	Z2	X3	Y3	Z3	X4	Y4	Z4	X5	Y5	Z5	X6	Y6	Z6	X7	Y7	Z7	X8	Y8	Z8	X9	Y9	Z9	X10	Y10	Z10	X11	Y11	Z11	X12	Y12	Z12	X13	Y13	Z13	X14	Y14	Z14	X15	Y15	Z15	X16	Y16	Z16	X17	Y17	Z17	X18	Y18	Z18	X19	Y19	Z19	X20	Y20	Z20	X21	Y21	Z21	X22	Y22	Z22	X23	Y23	Z23	X24	Y24	Z24	X25	Y25	Z25	X26	Y26	Z26	X27	Y27	Z27	X28	Y28	Z28	X29	Y29	Z29	X30	Y30	Z30	X31	Y31	Z31	X32	Y32	Z32	X33	Y33	Z33	X34	Y34	Z34	X35	Y35	Z35	X36	Y36	Z36	X37	Y37	Z37	X38	Y38	Z38	

429	8.560	845.83875	614.32013	601.81409	864.04889	614.18909	512.80426	798.45844	615.43176	133.78200	707.32947	654.25256	84.57591	913.01361	602.71411	61.85324	944.51837	667.66626	100.43563	755.78845	867.56317	565.69440	786.44006	853.50598	448.39505	696.65015	811.45508	109.47532	620.88611	755.64880	72.31200	814.34131	849.17694	41.46967	861.05011	792.41382	69.35526	828.34216	740.50299	584.46124	800.90063	711.69250	142.32068	780.38293	743.66821	568.19855	726.64044	721.80139	123.50609	856.19757	611.64911	392.92065	790.23914	596.31079	514.85565	776.04462	588.57440	400.01944	698.56781	875.05780	467.61920	684.44592	860.74860	346.65897	862.24847	596.99274	933.21167	881.05945	604.63025	819.31256	845.97900	587.33441	779.21356	758.02258	558.89789	905.60608	781.37750	580.96100	790.89667	823.40509	919.55615	832.96729	832.61426	901.02948	696.25012	707.66711	920.67603	825.77716	720.22296	891.53674	694.07062	850.40076	651.81055	1118.30884	653.53540	718.60217	1137.32385	830.24561	905.36737	1088.78723	651.67975	801.67090	1127.33337	712.63983	820.80054	1621.36255	765.19910	661.86938	1598.13147	756.15472	1003.99384	1567.36731	843.91272	825.13696	1532.42236	
430	8.580	858.64410	614.49921	604.78577	880.10162	614.49377	516.67975	829.81592	615.40924	135.82738	740.24249	653.75220	82.91023	947.00378	603.91602	67.90101	976.86346	668.10095	107.76033	755.22180	867.37939	565.91235	786.08020	853.40521	448.32706	696.72058	811.20374	109.51092	620.90521	755.53381	72.33609	814.32892	848.98273	41.30902	861.08319	792.47217	69.40675	840.12390	740.39227	587.29260	831.04022	711.51550	143.91808	779.75360	743.40112	567.88403	726.77057	721.52393	123.43491	876.95642	612.03717	396.53857	806.34344	595.90747	515.86047	796.53064	588.23352	400.40176	698.21289	874.80933	467.41864	684.16949	860.28546	346.40472	864.35541	597.37164	936.16455	886.62677	605.18585	823.09631	853.06647	587.37048	781.95886	761.49542	558.23779	905.68872	788.03418	580.80725	791.41687	822.59503	919.22266	833.40845	832.00885	901.01630	696.59088	706.66736	920.66077	825.87872	719.60583	891.34998	694.17377	847.97827	651.74652	1119.62109	651.02960	718.67041	1136.32483	827.76752	905.59814	1088.90662	649.27045	801.74835	1126.45374	710.20886	821.04645	1621.37634	762.44763	661.76086	1598.06079	755.25739	1003.83429	1567.26917	841.78491	824.65662	1532.38782	
431	8.600	871.96967	614.34149	608.96021	897.15167	614.35669	521.84570	864.88672	615.74146	138.74153	777.15973	653.49939	82.14802	984.48065	604.29260	75.84795	1012.43225	668.74677	117.59509	754.70007	867.05707	565.95685	785.62543	853.18457	448.36038	696.70581	810.99573	109.49899	620.92242	755.40564	72.36394	814.28064	849.04095	41.31067	861.04578	792.45618	69.33450	853.30920	740.17133	591.16516	864.91101	711.60590	147.41841	780.08154	743.70435	567.53345	726.76733	721.30585	123.35908	899.61218	611.99963	401.80701	823.61145	595.54303	517.70081	819.07593	587.85352	401.86069	697.69391	874.57050	467.28467	683.85376	860.03741	346.22833	867.12598	597.63824	939.70581	892.42426	605.33606	827.92456	860.36664	587.08026	785.48694	764.33868	557.67542	906.21527	795.06781	580.29712	792.78418	821.59607	918.62299	833.87292	831.37164	900.79895	697.03821	705.56793	920.63147	825.82141	719.03052	891.26471	694.02087	845.24677	651.40735	1121.24622	648.17932	718.79657	1135.28918	825.91833	905.24829	1089.43323	646.86749	801.53986	1125.43298	707.77863	821.52264	1621.36230	759.35876	661.85486	1598.07104	754.62506	1004.01184	1567.11597	839.58496	824.16718	1532.27478	
432	8.620	886.03253	613.89307	614.22632	915.31012	614.03278	527.97723	902.33630	615.54901	144.13687	817.87396	653.40759	83.08978	1024.86780	605.27649	86.56032	1050.90356	669.70789	130.43523	753.85583	866.53778	565.99133	784.22467	852.37579	448.18478	696.68604	810.67230	109.46167	620.97656	755.25977	72.30089	814.30316	849.05750	41.29697	861.09589	792.53680	69.39319	868.44415	739.64191	594.96283	901.78430	711.77850	152.65414	779.30328	743.34753	567.56586	726.80090	721.00623	123.13683	923.90082	611.95459	408.44067	842.19073	594.93689	520.38953	843.49457	587.48779	404.50793	696.92517	874.16760	467.12903	683.64960	859.49078	346.11456	867.83636	596.93939	944.19208	898.16162	605.03503	833.45923	867.80780	586.48315	789.85968	767.91187	557.03125	906.93268	802.38477	579.51886	795.21790	820.33331	917.95435	834.14941	830.66626	900.22064	697.34131	704.55823	920.23627	825.69019	718.21149	890.99579	694.13910	842.21118	651.12390	1123.09900	645.17188	718.65369	1134.12109	823.80249	904.74518	1089.77625	644.28876	801.36646	1124.31421	705.49878	822.49738	1621.23279	755.54071	662.45319	1598.14099	754.19238	1004.52539	1566.69360	837.31018	823.66473	1532.11755	
433	8.640	900.78357	612.81952	620.18304	934.36212	612.71136	535.49829	942.92133	615.93555	151.58458	860.64594	653.91040	87.86371	1068.82727	606.40204	101.17401	1091.46667	670.67560	146.11797	752.80377	865.78943	565.90375	783.20215	851.85132	448.18942	696.72418	810.12177	109.38226	620.98303	755.09900	72.23848	814.29529	849.47296	41.59256	860.40295	792.43524	69.34446	884.43738	738.47491	600.06244	941.54504	712.03290	160.64395	778.48383	742.77399	567.49658	726.80603	720.62415	122.84071	949.64752	611.34839	416.71246	862.07062	593.98572	524.22736	869.50018	586.92102	408.46298	695.84705	873.29974	467.03519	682.88574	858.70074	345.79199	870.00232	596.50684	949.02441	903.96344	604.02710	839.90149	875.36267	585.49884	795.15729	770.92712	555.92920	908.29901	809.79144	578.22028	797.89600	819.22778	917.01428	834.57971	829.71826	899.52618	697.80255	703.26379	919.57147	825.61316	717.97644	890.51447	694.40369	838.68781	650.81042	1125.09265	642.27795	718.33099	1133.06372	822.19818	904.14014	1090.63147	641.76031	801.11627	1123.29993	703.10736	823.83350	1621.12793	751.38971	663.35974	1598.41150	754.10474	1005.23358	1566.08008	834.99976	823.38556	1531.92346	
434	8.660	916.19183	611.26733	627.67871	954.13293	611.81897	545.06531	985.26062	616.30347	161.89888	907.27374	654.32562	92.28724	1113.79688	607.20990	117.99492	1133.67749	670.90662	164.85518	751.55542	865.03076	566.07068	781.69641	851.36407	448.23526	696.73419	809.69293	109.34819	621.05878	754.86163	72.24953	813.78265	849.33160	41.64117	860.93878	792.78601	69.54230	901.37122	736.94055	606.92847	983.30011	712.33844	171.46786	777.30865	742.09540	567.59546	726.89124	720.11078	122.70647	976.22833	610.47693	427.04977	882.55273	592.77203	529.18921	896.86963	586.67896	414.08005	694.27515	872.45172	466.70331	681.54327	857.87445	345.49622	871.03961	595.53497	954.62305	909.81482	602.63837	847.35297	883.13049	584.21808	801.31500	773.83777	554.62366	909.92218	817.42291	575.92773	801.78876	817.76819	915.76105	835.07623	829.36914	898.25275	699.15033	702.05841	918.99902	825.91675	716.83301	889.96503	694.58374	834.90796	650.38165	1127.34802	639.10040	718.25287	1132.42859	819.79517	903.49091	1090.79163	639.08673	800.77740	1122.38611	700.95496	825.57300	1620.92749	746.99677	664.50964	1598.76941	754.23962	1006.17310	1565.24829	832.89868	823.06573	1531.74963	
